<svg xmlns="http://www.w3.org/2000/svg" xmlns:xlink="http://www.w3.org/1999/xlink" width="3500" height="1210" viewBox="0 0 3500 1210" fill="none">
    <path id="path1" d="M11.03 205.41C11.03 205.41 369.33 126.74 620.45 205.41C783.83 256.6 1001.54 492.87 1165.07 462.6C1290.98 439.3 1257.42 128.73 1666.4 113.31C1793.04 108.54 1947.45 187.55 1917.68 310.15C1892.88 427.47 1709.8 736.82 1988.11 842.71C2307.69 964.3 2366.46 646.77 2479.1 639.13C2591.75 631.49 2782.67 923.62 3235.08 666.72" stroke="url(#gradient)"/>
    <path id="path2" d="M11.03 399.22C94.08 339.13 287.44 286.82 530.04 285.71C829.38 284.34 936.24 520.52 1144.34 524.98C1352.44 529.44 1284.31 145.54 1648.55 152.75C1738.35 154.53 1857.18 212.71 1844.78 316.46C1828.68 451.21 1609.62 799.35 1924.39 919.17C2285.84 1056.74 2352.34 697.38 2479.75 688.72C2607.16 680.06 2759.61 973.38 3262.48 728.05" stroke="url(#gradient)"/>
    <path id="path3" d="M11.03 504.35C123 437.13 299.63 354.45 562.3 351.98C901.59 348.79 979.26 647.34 1155.13 607.05C1301.71 573.47 1319.39 420.31 1411.28 299.47C1482.84 205.36 1581.33 199.88 1643.27 216.86C1732.01 241.19 1771.8 332.28 1759.07 411.11C1736.28 552.2 1587.33 850.12 1915.95 975.88C2293.28 1120.29 2363.19 741.77 2496.27 732.48C2629.35 723.19 2788.21 1031.88 3313.73 772.88" stroke="url(#gradient)"/>
    <path id="path4" d="M11.03 694.02C158.02 561.73 382.83 404.08 629.92 437.28C935.25 478.3 981.94 775.45 1166.93 728C1373.12 675.11 1326.62 397.38 1495.13 297.34C1595.97 237.47 1725.72 335.99 1711.48 437.49C1690.74 585.34 1455.3 887.86 1849.09 1019.44C2362.28 1190.91 2387.39 763.21 2543.68 789.69C2615.28 801.82 2741.13 928.89 2938.33 941.68C3102.72 952.34 3248.98 883.16 3347.94 809.9" stroke="url(#gradient)"/>

    <g filter="url(#motion-blur)">
        <circle r="7.81616" fill="white" filter="url(#blur)"/>
        <circle r="7.81616" fill="white"/>
        <animateMotion dur="4s" repeatCount="indefinite" rotate="auto">
            <mpath xlink:href="#path1"/>
        </animateMotion>
    </g>
    <g filter="url(#motion-blur)">
        <circle r="7.81616" fill="white" filter="url(#blur)"/>
        <circle r="7.81616" fill="white"/>
        <animateMotion dur="5s" repeatCount="indefinite" rotate="auto" begin="-3s">
            <mpath xlink:href="#path1"/>
        </animateMotion>
    </g>
    <g filter="url(#motion-blur)">
        <circle r="7.81616" fill="white" filter="url(#blur)"/>
        <circle r="7.81616" fill="white"/>
        <animateMotion dur="3s" repeatCount="indefinite" rotate="auto" begin="-3s">
            <mpath xlink:href="#path2"/>
        </animateMotion>
    </g>
    <g filter="url(#motion-blur)">
        <circle r="7.81616" fill="white" filter="url(#blur)"/>
        <circle r="7.81616" fill="white"/>
        <animateMotion dur="4s" repeatCount="indefinite" rotate="auto" begin="-2s">
            <mpath xlink:href="#path2"/>
        </animateMotion>
    </g>
    <g filter="url(#motion-blur)">
        <circle r="7.81616" fill="white" filter="url(#blur)"/>
        <circle r="7.81616" fill="white"/>
        <animateMotion dur="3.5s" repeatCount="indefinite" rotate="auto" begin="-3s">
            <mpath xlink:href="#path3"/>
        </animateMotion>
    </g>
    <g filter="url(#motion-blur)">
        <circle r="7.81616" fill="white" filter="url(#blur)"/>
        <circle r="7.81616" fill="white"/>
        <animateMotion dur="3.3s" repeatCount="indefinite" rotate="auto" begin="-1.8s">
            <mpath xlink:href="#path4"/>
        </animateMotion>
    </g>
    <g filter="url(#motion-blur)">
        <circle r="7.81616" fill="white" filter="url(#blur)"/>
        <circle r="7.81616" fill="white"/>
        <animateMotion dur="4.5s" repeatCount="indefinite" rotate="auto" begin="-2s">
            <mpath xlink:href="#path4"/>
        </animateMotion>
    </g>
    <circle cx="2300" cy="965" r="54" fill="#89E0B1"/>
    <defs>
        <linearGradient id="gradient" x1="10.92" y1="491.76" x2="3235.32" y2="491.76" gradientUnits="userSpaceOnUse">
            <stop offset="0.04" stop-color="white" stop-opacity="0"/>
            <stop offset="0.24" stop-color="white"/>
        </linearGradient>
        <filter id="blur" x="-100%" y="-100%" width="400%" height="400%">
            <feGaussianBlur in="SourceGraphic" stdDeviation="5"/>
        </filter>
        <filter id="motion-blur" x="-50%" y="-50%" width="200%" height="200%">
            <feGaussianBlur in="SourceGraphic" stdDeviation="1,0"/>
        </filter>
    </defs>
<deepl-alert xmlns=""/><deepl-alert xmlns=""/><deepl-alert xmlns=""/></svg>