<svg class="remote-logo" width="122" height="36" viewBox="0 0 122 36" fill="none" xmlns="http://www.w3.org/2000/svg" data-collapse-move="5.5" preserveAspectRatio="xMinYMid slice">
    <g class="remote-symbol">
        <path d="M30.7006 22.4178H30.9509V27H30.2013C25.3333 27 22.5168 24.2233 22.5168 19.6902V17.359L24.0986 16.9613C24.5619 16.844 24.9829 16.5989 25.3138 16.2538C25.6447 15.9088 25.8722 15.4777 25.9704 15.0096C26.0686 14.5415 26.0335 14.0552 25.8692 13.6061C25.7049 13.1569 25.4178 12.763 25.0408 12.4691C24.6638 12.1753 24.212 11.9932 23.7367 11.9438C23.2614 11.8943 22.7818 11.9795 22.3525 12.1894C21.9232 12.3994 21.5614 12.7258 21.3083 13.1315C21.0552 13.5372 20.9209 14.0059 20.9208 14.4842V24.4713H16V14.3111C15.9997 14.0054 16.0191 13.7 16.0581 13.3967C16.5174 9.79091 19.6629 7 23.4754 7C26.9319 7 29.8413 9.29498 30.7006 12.4126C31.1472 14.0456 31.0024 15.784 30.2916 17.3203C29.6893 18.6167 28.7238 19.7101 27.5125 20.4676C27.9189 22.1169 28.7833 22.4217 30.7006 22.4217" fill="currentColor">
        </path>
    </g>
    <g class="remote-logotype">
        <path d="M42.8874 13.6124V16.4124H42.4294C41.4669 16.4124 40.716 16.6772 40.1767 17.2067C39.6374 17.7362 39.3686 18.4555 39.3703 19.3647V24.4132H36.6609V13.7855H39.3703V15.1597C40.184 14.1265 41.2046 13.6099 42.432 13.6099L42.8874 13.6124Z" fill="currentColor"></path>
        <path d="M54.5263 20.0802H46.3039C46.4731 20.7223 46.8576 21.2868 47.3928 21.6791C47.9619 22.0834 48.6473 22.2907 49.3449 22.2693C49.9321 22.276 50.5132 22.1488 51.0441 21.8974C51.518 21.6818 51.9357 21.3596 52.2646 20.9559L54.0709 22.5444C53.5029 23.2199 52.788 23.7563 51.9808 24.1123C51.1238 24.4901 50.196 24.6799 49.2597 24.6689C48.2073 24.6843 47.1681 24.4324 46.2394 23.9366C45.3617 23.471 44.6299 22.7715 44.1247 21.9154C43.6287 21.0539 43.3654 20.0778 43.3609 19.0834C43.3564 18.089 43.6107 17.1106 44.0989 16.2445C44.5819 15.4076 45.2853 14.7196 46.1323 14.2556C47.0114 13.7699 48.0014 13.5207 49.0056 13.5324C50.5985 13.5324 51.9279 14.0632 52.9936 15.1248C54.0593 16.1864 54.593 17.5175 54.5947 19.1181C54.5934 19.44 54.5705 19.7614 54.5263 20.0802ZM50.7073 16.5015C50.2164 16.1159 49.6103 15.9063 48.9862 15.9063C48.3621 15.9063 47.7561 16.1159 47.2651 16.5015C46.7695 16.9092 46.4225 17.4695 46.2781 18.0952H51.6969C51.5528 17.4691 51.2052 16.9086 50.7086 16.5015H50.7073Z" fill="currentColor"></path>
        <path d="M71.9577 14.6107C72.6828 15.3296 73.0454 16.2918 73.0454 17.4972V24.4196H70.3359V18.3018C70.3359 17.6491 70.1476 17.1282 69.7708 16.7391C69.3941 16.3499 68.8905 16.1545 68.26 16.1527C67.596 16.1527 67.0571 16.3533 66.6434 16.7546C66.2296 17.1558 66.0228 17.6853 66.0228 18.3431V24.4131H63.3133V18.3018C63.3133 17.6569 63.122 17.1377 62.7392 16.7442C62.3564 16.3508 61.8447 16.1536 61.2039 16.1527C60.909 16.1411 60.6147 16.1888 60.3386 16.293C60.0624 16.3973 59.81 16.556 59.5963 16.7597C59.3893 16.9665 59.2274 17.2139 59.1208 17.4864C59.0142 17.759 58.9652 18.0507 58.977 18.3431V24.4131H56.2727V13.7841H58.9821V14.8819C59.7812 13.9787 60.8284 13.5276 62.1238 13.5284C62.809 13.5146 63.4871 13.6704 64.0978 13.9817C64.6618 14.2742 65.1349 14.716 65.4654 15.259C66.3427 14.1053 67.5469 13.5284 69.078 13.5284C70.2796 13.531 71.2395 13.8918 71.9577 14.6107Z" fill="currentColor"></path>
        <path d="M86.0175 19.1013C86.0175 20.6821 85.4718 22.0054 84.3803 23.0713C83.2887 24.1372 81.9323 24.6689 80.311 24.6663C78.6905 24.6663 77.3327 24.1338 76.2378 23.0687C75.1428 22.0037 74.5945 20.6803 74.5928 19.0987C74.5928 17.5179 75.1411 16.1941 76.2378 15.1274C77.3345 14.0606 78.6922 13.5281 80.311 13.5298C81.9314 13.5298 83.2879 14.0623 84.3803 15.1274C85.4726 16.1924 86.0184 17.517 86.0175 19.1013ZM82.405 21.2025C82.9341 20.6307 83.228 19.88 83.228 19.1006C83.228 18.3212 82.9341 17.5705 82.405 16.9987C82.1316 16.7246 81.8069 16.507 81.4495 16.3586C81.0921 16.2102 80.7089 16.1338 80.3219 16.1338C79.935 16.1338 79.5518 16.2102 79.1944 16.3586C78.8369 16.507 78.5122 16.7246 78.2389 16.9987C77.7036 17.5654 77.4054 18.3156 77.4054 19.0955C77.4054 19.8753 77.7036 20.6256 78.2389 21.1922C78.797 21.733 79.5433 22.0354 80.32 22.0354C81.0967 22.0354 81.843 21.733 82.4011 21.1922L82.405 21.2025Z" fill="currentColor"></path>
        <path d="M90.9662 16.2601V20.6795C90.9662 21.5887 91.4543 22.0434 92.4305 22.0434C92.9151 22.0254 93.3902 21.9039 93.824 21.6869V24.2131C93.2118 24.5297 92.5298 24.687 91.8409 24.6702C90.6539 24.6702 89.7603 24.3534 89.1599 23.7197C88.5595 23.086 88.2585 22.219 88.2567 21.1186V16.2626H86.5679V13.7856H88.2567V12.0149L90.9662 11.0876V13.7856H93.824V16.2601H90.9662Z" fill="currentColor"></path>
        <path d="M105.816 20.0802H97.5869C97.7561 20.7223 98.1406 21.2867 98.6758 21.679C99.2449 22.0835 99.9303 22.2908 100.628 22.2692C101.215 22.2761 101.795 22.1489 102.326 21.8973C102.8 21.6821 103.218 21.3599 103.548 20.9558L105.354 22.5443C104.786 23.2199 104.071 23.7562 103.264 24.1122C102.407 24.4909 101.479 24.6815 100.543 24.6714C99.4903 24.6869 98.4511 24.435 97.5224 23.9391C96.6447 23.4732 95.9125 22.7738 95.4064 21.9179C94.911 21.0561 94.6482 20.0801 94.6439 19.0857C94.6396 18.0914 94.8939 17.1131 95.3819 16.247C95.8649 15.4097 96.5682 14.7213 97.4153 14.2568C98.2945 13.7711 99.2845 13.5219 100.289 13.5336C101.882 13.5336 103.21 14.0648 104.275 15.1273C105.34 16.1898 105.873 17.5217 105.873 19.1232C105.875 19.4431 105.856 19.7628 105.816 20.0802ZM102.001 16.5014C101.51 16.1158 100.904 15.9062 100.28 15.9062C99.6555 15.9062 99.0494 16.1158 98.5584 16.5014C98.0628 16.9092 97.7158 17.4695 97.5714 18.0951H102.99C102.845 17.4674 102.495 16.9059 101.996 16.4989L102.001 16.5014Z" fill="currentColor"></path>
    </g>
</svg>